<svg width="65" height="73" viewBox="0 0 65 73" fill="none" xmlns="http://www.w3.org/2000/svg">
<path d="M50.3334 44.8L23.6667 59.4667L37 66.6667L50.3334 59.4667V44.8Z" fill="#C067D1"/>
<path d="M55.6667 55.3333H7.66668L2.33334 60.6667H61L55.6667 55.3333Z" fill="#C067D1"/>
<path d="M15.7206 51.104L11.9494 47.3328L8.1782 51.104L11.9494 54.8752L15.7206 51.104Z" fill="#C067D1"/>
<path d="M29 48L37 44L45 48V56L37 60L29 56V48Z" stroke="#703EBB" stroke-width="3" stroke-miterlimit="10" stroke-linejoin="round"/>
<path d="M10.3333 37.8667V33.3333" stroke="#703EBB" stroke-width="3" stroke-miterlimit="10" stroke-linecap="round" stroke-linejoin="round"/>
<path d="M50.3334 59.4667L37 66.6667L23.6667 59.4667V44.8L37 37.3333L50.3334 44.8V59.4667Z" stroke="#703EBB" stroke-width="3" stroke-miterlimit="10" stroke-linejoin="round"/>
<path d="M15.7206 51.104L11.9494 47.3328L8.1782 51.104L11.9494 54.8752L15.7206 51.104Z" stroke="#703EBB" stroke-width="3" stroke-miterlimit="10" stroke-linecap="round" stroke-linejoin="round"/>
<path d="M46.3333 36L42.3333 30.6667H31.6667L27.6667 36L2.33334 38.6667V70.6667H61V38.6667L46.3333 36Z" stroke="#703EBB" stroke-width="3" stroke-miterlimit="10" stroke-linecap="round" stroke-linejoin="round"/>
<path d="M49 7.33333L42.3333 2H31.6667L25 7.33333" stroke="#703EBB" stroke-width="3" stroke-miterlimit="10" stroke-linecap="round" stroke-linejoin="round"/>
<path d="M45 11.3333L39.9333 7.33333H34.0667L29 11.3333" stroke="#703EBB" stroke-width="3" stroke-miterlimit="10" stroke-linecap="round" stroke-linejoin="round"/>
<path d="M41 15.3333L37.8 12.6667H36.4667L33 15.3333" stroke="#703EBB" stroke-width="3" stroke-miterlimit="10" stroke-linecap="round" stroke-linejoin="round"/>
</svg>
